<svg class="object-contain min-h-[1.75rem] max-h-10" viewBox="0 0 135 40" fill="none" xmlns="http://www.w3.org/2000/svg">
  <path fill-rule="evenodd" clip-rule="evenodd" d="M5 0C2.23858 0 0 2.23858 0 5V35C0 37.7614 2.23857 40 5 40H130C132.761 40 135 37.7614 135 35V5C135 2.23858 132.761 0 130 0H5ZM8 4H127C129.209 4 131 5.79086 131 8V32C131 34.2091 129.209 36 127 36H8C5.79086 36 4 34.2091 4 32V8C4 5.79086 5.79086 4 8 4ZM3 8C3 5.23858 5.23858 3 8 3H127C129.761 3 132 5.23858 132 8V32C132 34.7614 129.761 37 127 37H8C5.23858 37 3 34.7614 3 32V8ZM42.725 26.116C42.725 27.568 42.34 28.811 41.57 29.845C40.822 30.879 39.612 31.396 37.94 31.396C36.356 31.396 35.146 30.846 34.31 29.746C33.496 28.646 33.056 27.227 32.99 25.489H35.927C35.971 27.447 36.642 28.459 37.94 28.525C39.106 28.437 39.7 27.634 39.722 26.116C39.766 25.148 39.249 23.872 38.171 22.288C37.115 20.704 36.169 19.395 35.333 18.361C34.717 17.591 34.255 16.799 33.947 15.985C33.661 15.149 33.518 14.39 33.518 13.708C33.518 12.366 33.903 11.167 34.673 10.111C35.465 9.055 36.565 8.527 37.973 8.527C39.183 8.527 40.25 9 41.174 9.946C42.098 10.892 42.571 12.146 42.593 13.708H39.722C39.656 12.146 39.106 11.376 38.072 11.398C37.06 11.42 36.554 12.179 36.554 13.675C36.532 14.181 36.653 14.709 36.917 15.259C37.181 15.809 37.555 16.359 38.039 16.909C39.623 18.757 40.8 20.429 41.57 21.925C42.34 23.399 42.725 24.796 42.725 26.116ZM50.4295 8.527C52.3655 8.527 53.7295 9.429 54.5215 11.233C55.3135 13.037 55.7095 15.952 55.7095 19.978C55.7095 23.85 55.3135 26.732 54.5215 28.624C53.7295 30.494 52.3655 31.429 50.4295 31.429C48.4935 31.429 47.1295 30.494 46.3375 28.624C45.5455 26.732 45.1495 23.85 45.1495 19.978C45.1495 15.952 45.5455 13.037 46.3375 11.233C47.1295 9.429 48.4935 8.527 50.4295 8.527ZM50.3635 11.629C49.7035 11.629 49.1645 12.025 48.7465 12.817C48.3285 13.587 48.0755 15.941 47.9875 19.879C48.0755 23.817 48.3285 26.182 48.7465 26.974C49.1645 27.744 49.7035 28.129 50.3635 28.129C51.0455 28.129 51.5955 27.744 52.0135 26.974C52.4315 26.182 52.6845 23.817 52.7725 19.879C52.6845 15.941 52.4315 13.587 52.0135 12.817C51.5955 12.025 51.0455 11.629 50.3635 11.629ZM63.6715 11.299C63.0775 11.277 62.5825 11.629 62.1865 12.355C61.8125 13.081 61.5595 15.633 61.4275 20.011C61.5595 24.103 61.8345 26.512 62.2525 27.238C62.6705 27.964 63.1985 28.305 63.8365 28.261C64.8045 28.261 65.3545 27.546 65.4865 26.116H68.2255C68.2255 27.81 67.7745 29.119 66.8725 30.043C65.9925 30.945 64.9585 31.396 63.7705 31.396C61.9225 31.396 60.6245 30.549 59.8765 28.855C59.1285 27.139 58.7325 24.18 58.6885 19.978C58.7325 15.468 59.1725 12.432 60.0085 10.87C60.8445 9.308 62.0985 8.527 63.7705 8.527C64.8705 8.527 65.8825 8.967 66.8065 9.847C67.7525 10.705 68.2255 11.926 68.2255 13.51H65.4865C65.4425 12.058 64.8375 11.321 63.6715 11.299ZM74.9168 31H72.1448V8.89H74.9168V31ZM85.1009 21.793L83.8799 14.632L82.6919 21.793H85.1009ZM89.8529 31H86.9159L85.6619 25.093H82.0319L80.7779 31H77.9069L82.4939 8.89H85.2659L89.8529 31ZM100.191 31H91.7429V8.89H94.5149V28.129H100.191V31ZM115.032 10.752C115.747 10.7627 116.275 11.0827 116.616 11.712L118.04 10.992C117.389 9.76533 116.397 9.136 115.064 9.104C114.115 9.104 113.352 9.44 112.776 10.112C112.2 10.7733 111.923 11.4987 111.944 12.288C111.944 12.9493 112.216 13.52 112.76 14C113.304 14.4693 114.088 14.7787 115.112 14.928C115.869 15.0667 116.397 15.3013 116.696 15.632C116.995 15.952 117.139 16.2773 117.128 16.608C117.128 17.0987 116.941 17.5307 116.568 17.904C116.195 18.2667 115.752 18.4427 115.24 18.432C114.355 18.432 113.661 17.9147 113.16 16.88L111.544 17.696C112.344 19.3387 113.565 20.1707 115.208 20.192C116.243 20.192 117.107 19.84 117.8 19.136C118.493 18.4213 118.84 17.6053 118.84 16.688C118.84 15.856 118.547 15.12 117.96 14.48C117.384 13.8293 116.451 13.392 115.16 13.168C114.616 13.0827 114.216 12.9387 113.96 12.736C113.715 12.5333 113.592 12.304 113.592 12.048C113.581 11.696 113.715 11.392 113.992 11.136C114.269 10.88 114.616 10.752 115.032 10.752ZM124.35 10.784H126.83V9.28H120.206V10.784H122.654V20H124.35V10.784Z" fill="#765341"/>
</svg>
